<?xml version="1.0" encoding="utf-8"?>
<!-- Generator: Adobe Illustrator 16.0.0, SVG Export Plug-In . SVG Version: 6.00 Build 0)  -->
<!DOCTYPE svg PUBLIC "-//W3C//DTD SVG 1.1//EN" "http://www.w3.org/Graphics/SVG/1.1/DTD/svg11.dtd">
<svg version="1.1" id="Layer_1" xmlns="http://www.w3.org/2000/svg" xmlns:xlink="http://www.w3.org/1999/xlink" x="0px" y="0px"
	 width="320.991px" height="96.59px" viewBox="0 0 320.991 96.59" enable-background="new 0 0 320.991 96.59" xml:space="preserve">
<path fill-rule="evenodd" clip-rule="evenodd" d="M68.406,64.79c4.309,4.143,8.445,8.118,12.56,12.074
	c-12.801,19.055-45.112,22.418-64.688,6.853c-19.723-15.683-21.885-47.513-4.5-66.264C29.559-1.727,62.807-1.878,80.529,17.47
	c-4.052,4.758-8.143,9.562-12.502,14.68c-8.079-7.252-16.811-12.467-28.106-10.026c-5.579,1.206-10.126,4.119-13.624,8.638
	c-8.487,10.962-7.621,27.535,1.954,37.526C38.106,78.572,50.945,77.464,68.406,64.79z"/>
<path fill-rule="evenodd" clip-rule="evenodd" d="M159.65,93.521c-19.28-0.185-33.875-14.26-33.814-32.614
	c0.062-18.913,15.129-33.466,34.503-33.327c19.199,0.138,33.938,14.569,33.826,33.122C194.053,79.351,178.958,93.706,159.65,93.521z
	 M174.919,60.738c-0.072-9.048-6.848-16.134-15.308-16.011c-8.374,0.122-14.617,6.87-14.584,15.764
	c0.034,9.077,6.663,15.93,15.344,15.861C168.925,76.285,174.991,69.773,174.919,60.738z"/>
<path fill-rule="evenodd" clip-rule="evenodd" d="M120.132,77.696c0,5.107,0,9.932,0,15.048c-6.595,1.102-13.01,1.538-19.157-1.301
	c-6.41-2.96-9.079-8.645-9.137-15.196C91.624,52.27,91.764,28.29,91.784,4.311c0-0.22,0.176-0.44,0.361-0.872
	c5.97,0,12.02,0,18.606,0c0,1.553,0,3,0,4.446c0,20.233-0.011,40.467,0.007,60.699C110.767,77.272,111.19,77.675,120.132,77.696z"/>
<path d="M217.387,29.314l8.403,28.902c1.527,5.22,2.674,10.185,3.564,15.15h0.383c1.018-5.092,2.037-9.803,3.438-15.15l8.021-28.902
	h20.37l-23.171,62.259h-19.354l-22.663-62.259H217.387z"/>
<path d="M304.032,91.954l-1.115-6.066h-0.372c-3.96,4.828-10.15,7.427-17.331,7.427c-12.256,0-19.56-8.913-19.56-18.569
	c0-15.722,14.113-23.273,35.529-23.15V50.73c0-3.219-1.733-7.799-11.018-7.799c-6.189,0-12.751,2.104-16.712,4.58l-3.467-12.132
	c4.208-2.352,12.503-5.323,23.521-5.323c20.178,0,26.615,11.884,26.615,26.121v21.046c0,5.818,0.248,11.389,0.867,14.731H304.032z
	 M301.803,63.357c-9.904-0.124-17.579,2.228-17.579,9.532c0,4.828,3.22,7.18,7.427,7.18c4.705,0,8.543-3.095,9.781-6.932
	c0.247-0.991,0.371-2.105,0.371-3.219V63.357z"/>
</svg>
