<?xml version="1.0" encoding="utf-8"?>
<!-- Generator: Adobe Illustrator 16.0.0, SVG Export Plug-In . SVG Version: 6.00 Build 0)  -->
<!DOCTYPE svg PUBLIC "-//W3C//DTD SVG 1.1//EN" "http://www.w3.org/Graphics/SVG/1.1/DTD/svg11.dtd">
<svg version="1.1" id="Layer_1" xmlns="http://www.w3.org/2000/svg" xmlns:xlink="http://www.w3.org/1999/xlink" x="0px" y="0px"
	 width="191.242px" height="53.672px" viewBox="0 0 191.242 53.672" enable-background="new 0 0 191.242 53.672"
	 xml:space="preserve">
<path fill-rule="evenodd" clip-rule="evenodd" d="M128.71,23.448c-1.77,1.185-2.178,2.939-4.43,3.127v-1.303
	c0-1.467,0.771-7.816,2.345-7.816c0.448,0,2.606,1.736,2.606,2.345v0.261C129.232,21.539,128.71,21.546,128.71,23.448L128.71,23.448
	z M180.559,19.801c-0.727-0.486-1.099-0.781-2.345-0.781c-1.291,0-2.229,1.515-3.388,1.824c0.599-2.239,4.43-4.023,4.43-5.472
	c0-0.917-1.275-2.258-2.345-2.084l-4.169,0.521l-2.309,0.881c0.038-0.378,2.462-3.661,3.091-5.05
	c0.525-1.161,2.084-4.376,2.084-5.732v-0.26c0-1.925-2.657-3.647-4.689-3.647c-1.983,0-3.891,1.169-5.248,1.787
	c-0.891,0.405-4.19,2.273-4.653,2.381c-0.679-1.283-2.377-3.908-4.169-3.908c-0.534,0-1.155,0.444-2.084,0.521l0.48,1.321l0.9,6.483
	c0.251,2.216-0.375,5.391-0.349,7.839c0.021,1.973,1.924,4.679,3.137,4.679h0.26c3.129,0,3.388-3.583,3.388-6.774v-3.387
	c0-4.914-1.415-2.389,2.497-4.538c1.021-0.562,4.595-1.454,6.101-1.454c-0.08,3.628-5.992,6.423-5.992,11.464
	c0,1.1,0.811,2.605,1.824,2.605c0.562,0,5.901-2.403,8.337-2.605c-5.021,7.499-2.686,5.121-11.24,8.561
	c-2.4,0.965-4.731,1.806-7.127,2.774c-3.136,1.268-4.358,0.063-6.905,2.995c0-3.427,0.442-3.647,0.987-6.049
	c0.395-1.734,0.199-3.911,0.526-5.998c0.069-0.441-0.611-5.668-0.762-6.162c-0.474-1.55-0.147-1.218-1.326-2.321
	c-0.31-0.29-1.959-1.096-2.292-1.096h-2.605c-0.601,0-0.782,0.182-0.782,0.782c0,0.773,0.521,0.697,0.521,1.824v0.26
	c0,2.001-8.865,8.043-10.943,8.599V19.28h-1.042l-2.1-3.899c-3.076-0.078-5.19-3.136-6.498-3.136h-0.521
	c-4.171,0-7.034,8.383-7.034,13.027c-0.715-0.343-3.402-0.132-4.635,0.056c-0.773,0.117-3.836,0.986-3.964,0.986h-0.781
	l1.012-13.029l-3.362-2.596l-3.385-0.514c-0.188,0.346-0.778,1.378-0.778,1.809c0,0.021,0.718,2.639,0.771,4.179
	c0.05,1.431,0.271,2.801,0.271,4.681v2.604c0,3.563,0.002,6.579,0.004,9.899c0.002,2.915-0.644,6.516,3.123,6.516
	c0.646,0,1.303-2.903,1.303-3.908c1.775-2.651-0.342-3.282,4.006-5.635c0.957-0.518,2.701-0.689,3.77-1.18
	c1.306-0.6,1.995-0.903,3.167-1.523c0.963,2.007,2.167,3.003,3.908,4.169c2.399-0.559,3.625,0.782,4.43,0.782h1.042
	c0.956,0,1.61-1.409,2.146-2.023c0.695-0.797,1.687-1.05,2.544-1.625l2.239-5.929l1.228,0.885l2.261,0.386
	c2.373-1.617,2.859-2.397,4.626-4.529c0.955-1.153,2.962-4.202,3.977-4.882l0.311,10.681c0.086,3.811-0.581,7.641-0.567,11.209
	c0.015,3.535-2.079,7.684,2.602,8.073l0.927-5.189c1.07-1.836,1.027-5.302,1.68-8.099c1.238,0.908,0.79,3.127,3.908,3.127h0.26
	c1.202,0,3.063-1.96,4.17-2.604c1.001-0.584,3.242-1.433,4.477-2.037c1.953-0.957,7.199-3.909,9.332-3.957
	c-0.052,0.613-3.939,7.393-4.585,8.443c-1.494,2.433-0.852,1.726-2.902,3.611c-0.767,0.705-3.717,1.797-3.717,2.797
	c0,1.164,2.396,3.647,3.387,3.647h0.521c2.173,0,7.008-7.034,14.33-7.034h2.084c0.642,0,2.606,0.503,2.606,1.303v0.781
	c0,1.345-1.563,4.836-1.563,6.514v3.127c0,0.231,1.517,2.68,1.744,2.945c1.113,1.303,1.615,0.594,2.945,1.483l2.917-2.544
	c-0.051-3.196,1.252-5.618,1.252-7.878v-4.689c0-4.318-2.964-6.774-7.295-6.774h-1.824c-4.765,0-9.037,2.716-11.985,4.69
	c0.082-0.987,2.334-2.986,3.064-3.711c1.081-1.074,2.018-2.584,2.88-3.894c0.724-1.099,1.408-3.778,2.637-4.138
	c1.161-0.339,1.601-0.026,2.271-1.116c0.128-0.208,1.133-2.244,1.133-2.254C182.123,20.533,181.253,19.986,180.559,19.801z"/>
<path fill-rule="evenodd" clip-rule="evenodd" d="M47.68,14.59c1.259-0.799,5.702,0.211,7.035,0.521
	c-0.135,1.616-4.915,4.575-6.253,5.472c-0.929,0.248-7.035,3.859-7.035,4.429c0,1.134,1.496,2.866,2.866,2.866h0.782v0.781
	c0,0.975-2.605,3.67-2.605,8.077v1.824c0,1.593,4.262,4.43,5.993,4.43h0.261c2.974,0,4.77-2.29,6.182-3.979
	c1.011-1.209,1.248-1.486,2.351-2.6c0.712-0.721,1.83-2.152,2.41-2.54l0.75,0.559l1.245,4.601l-0.253,0.165l3.641,2.614
	c0.998-0.335,3.475-0.712,3.475-1.686c0-2.061-1.563-2.086-1.563-3.127v-0.521c0-1.771,0.058-3.962,0.952-5.563
	c0.751-1.344,1.567-3.446,2.957-3.817v4.429l0.521,10.161c0.935,1.396,2.422,7.296,4.169,7.296c0.815,0,0.738-0.468,1.042-1.042
	l-0.618-5.463l0.097-3.656c0-0.584,0.206-0.572,0.521-1.042c-0.026-1.177-0.353-1.083-0.261-2.085l1.824-19.541l0.26-0.261
	l0.26-3.126l0.261-0.261v-1.042l-0.261-0.261l-0.26-0.261l-0.26-0.261l-0.261-0.261l-0.261-0.26L77.382,9.9l-3.387-0.521
	L73.735,9.64L73.474,9.9l-0.26,0.521l-0.261,1.304l-0.26,1.563l-0.521,1.823l-0.26,1.042l-0.261,1.042l-0.336,3.902l-4.036,4.491
	l1.313-8.903l-0.067-0.532c0-1.68-2.113-3.387-3.908-3.387c-2.328,0-4.429,13.768-4.429,17.717c-0.989,1.478-2.832,2.665-4.377,3.7
	c-0.595,0.397-4.763,2.553-5.263,2.553h-0.261c-0.426,0-0.782-0.155-0.782-0.521c0-1.374,1.348-4.986,1.757-6.061
	c0.625-1.644,0.701-0.668,1.27-2.638c0.202-0.701,0.698-1.757,1.052-2.596c0.265-0.627,3.178-3.223,3.844-3.712
	c0.975-0.717,2.76-3.492,2.76-4.796V14.59c0-2.705-5.133-6.774-8.077-6.774l-0.75-0.559c-1.937,0.038-4.206-0.573-6.547-0.747
	c-3.382-0.252-2.609,0.419-3.906,2.869c0.598,1.245,0.775,5.993,2.606,5.993h0.26C44.154,15.372,45.361,14.59,47.68,14.59z"/>
<path fill-rule="evenodd" clip-rule="evenodd" d="M15.633,37.258c0.337-1.263,1.442-2.37,1.847-4.406
	c0.313-1.574,0.498-3.565,0.498-5.494v-0.521c0-0.476-1.522-2.676-1.824-3.127l-2.083-0.267l-0.001,0.788
	c-1.447,0.12-2.36,4.083-2.867,5.209c-1.001,2.224-1.732,3.261-2.814,5.264c-0.451,0.835-3.019,3.693-4.233,3.844
	C1.696,38.851,0,39.63,0,42.208c0,2.134,0.847,2.866,3.126,2.866l0.75,0.559l2.628-0.364c0.365,0.02,4.136-0.202,4.953-0.2
	c2.113,0.002,3.113-0.261,5.217-0.255c2.281,0.007,8.227-0.547,9.961-0.981c3.321-0.835,5.787-1.469,8.606-2.337
	c1.424-0.438,2.586-0.871,4.058-1.414c0.577-0.213,2.388-2.542,2.388-3.084v-0.261c0-1.223-4.005-3.126-5.472-3.126h-0.781
	c-0.591,0-1.997,1.813-3.929,2.063c-1.784,0.229-3.341,0.305-5.076,0.655C24.227,36.774,17.949,37.258,15.633,37.258z"/>
<path fill-rule="evenodd" clip-rule="evenodd" d="M28.056,6.336c-2.623-1.249-11.898-2.688-15.81-2.688
	c-0.898,0-1.009,0.192-1.824,0.26V3.126C9.635,3.31,8.858,3.276,8.858,4.168c0,0.778,1.827,3.387,2.606,3.908l3.642-0.313
	c1.588-0.106,10.688,2.271,10.688,3.439v1.563c0,1.047-1.824,3.22-1.824,5.471l-0.559,0.751c0.038,2.533-1.004,4.25-1.004,6.806
	c0,3.714,0.882,6.834,3.126,8.337l0.612-0.724c0.492,0.333,0.824,0.984,1.472,0.984c0.584,0,0.572-0.206,1.042-0.521
	c0-3.112,1.573-6.197,3.064-7.879c0.651-0.733,2.929-6.689,2.929-7.755c0-4.365-0.855-4.908-1.543-7.837
	C32.506,7.827,30.256,7.385,28.056,6.336z"/>
<path fill-rule="evenodd" clip-rule="evenodd" d="M77.904,32.047l-0.261,2.084c0.454,0.947,0.554,4.169,2.084,4.169h1.042
	l-0.248-0.167l1.551-1.917c0-1.616,2.573-5.472,3.127-5.472c0.27,0,2.631,2.776,2.866,3.127c0.399,0.106,5.088,2.605,5.472,2.605
	h0.521c0.627,0,1.563-0.937,1.563-1.563v-0.261c0-0.635-2.88-3.047-3.387-3.387v-1.304c-0.605-0.404-3.387-2.628-3.387-3.387v-0.261
	c0-0.047,4.668-5.849,5.142-6.322c1.27-1.269,1.253-1.87,2.489-3.242c0.949-1.055,0.445-2.529,0.445-4.505l-1.505-1.927
	l-0.579-0.157c-2.807,0-7.346,6.31-8.907,8.289c-1.255,1.591-2.786,3.063-3.811,4.786c-0.616,1.033-2.504,4.714-3.175,5.163
	L77.904,32.047z"/>
<path fill-rule="evenodd" clip-rule="evenodd" d="M48.462,20.583c1.338-0.896,6.118-3.855,6.253-5.472
	c-1.333-0.311-5.776-1.32-7.035-0.521l6.792,0.625l0.119,0.326L48.462,20.583z"/>
<path fill-rule="evenodd" clip-rule="evenodd" d="M77.904,32.047l-0.428,2.097c0.343,0.897,0.556,4.417,1.991,4.417h0.781
	c0.925,0,0.622-1.365,2.084-2.345v-1.303c1.568-1.051,0.91-2.424,3.126-3.908l2.605,2.866c-0.234-0.351-2.596-3.127-2.866-3.127
	c-0.554,0-3.127,3.855-3.127,5.472l-1.551,1.917L80.77,38.3h-1.042c-1.531,0-1.63-3.222-2.084-4.169L77.904,32.047z"/>
<path fill-rule="evenodd" clip-rule="evenodd" d="M73.735,9.64L73.474,9.9l-0.26,0.521l-0.261,1.304l-0.26,1.563l-0.521,1.823
	l-0.26,1.042l-0.261,1.042l0.261-1.042l0.26-1.042l0.521-1.823l0.26-1.563l0.261-1.304l0.26-0.521L73.735,9.64l0.261-0.261
	L77.382,9.9l0.261,0.261l0.261,0.26l0.261,0.261l0.26,0.261l0.26,0.261l0.261,0.261v1.042l-0.261,0.261l-0.26,3.126l-0.26,0.261
	l0.26-0.261l0.26-3.126l0.261-0.261v-1.042l-0.261-0.261l-0.26-0.261l-0.26-0.261l-0.261-0.261l-0.261-0.26L77.382,9.9
	c-0.734-0.51-2.275-1.227-3.387-0.521L73.735,9.64z"/>
</svg>
