<?xml version="1.0" encoding="utf-8"?>
<!-- Generator: Adobe Illustrator 16.0.0, SVG Export Plug-In . SVG Version: 6.00 Build 0)  -->
<!DOCTYPE svg PUBLIC "-//W3C//DTD SVG 1.1//EN" "http://www.w3.org/Graphics/SVG/1.1/DTD/svg11.dtd">
<svg version="1.1" id="Layer_1" xmlns="http://www.w3.org/2000/svg" xmlns:xlink="http://www.w3.org/1999/xlink" x="0px" y="0px"
	 width="191.242px" height="53.672px" viewBox="0 0 191.242 53.672" enable-background="new 0 0 191.242 53.672"
	 xml:space="preserve">
<g>
	<path fill-rule="evenodd" clip-rule="evenodd" d="M152.942-21.98c-1.084,0.726-1.334,1.801-2.713,1.916v-0.798
		c0-0.898,0.473-4.787,1.436-4.787c0.274,0,1.597,1.063,1.597,1.436v0.16C153.262-23.149,152.942-23.145,152.942-21.98
		L152.942-21.98z M184.699-24.214c-0.445-0.298-0.673-0.478-1.436-0.478c-0.791,0-1.365,0.927-2.075,1.117
		c0.367-1.372,2.713-2.465,2.713-3.351c0-0.563-0.781-1.383-1.436-1.277l-2.553,0.319l-1.415,0.54
		c0.023-0.231,1.508-2.242,1.894-3.093c0.322-0.711,1.276-2.681,1.276-3.511v-0.159c0-1.179-1.627-2.234-2.872-2.234
		c-1.214,0-2.383,0.716-3.214,1.095c-0.545,0.248-2.567,1.393-2.85,1.458c-0.416-0.786-1.456-2.394-2.554-2.394
		c-0.327,0-0.708,0.272-1.276,0.319l0.294,0.809l0.551,3.971c0.154,1.357-0.229,3.302-0.213,4.801
		c0.013,1.208,1.178,2.866,1.921,2.866h0.16c1.916,0,2.074-2.194,2.074-4.149v-2.074c0-3.01-0.867-1.463,1.53-2.78
		c0.625-0.344,2.814-0.891,3.736-0.891c-0.049,2.222-3.67,3.934-3.67,7.021c0,0.673,0.497,1.596,1.117,1.596
		c0.344,0,3.614-1.472,5.106-1.596c-3.076,4.593-1.645,3.137-6.885,5.243c-1.47,0.591-2.898,1.106-4.365,1.699
		c-1.92,0.776-2.669,0.039-4.229,1.835c0-2.099,0.271-2.234,0.604-3.705c0.242-1.063,0.122-2.396,0.322-3.674
		c0.043-0.271-0.375-3.471-0.467-3.774c-0.29-0.949-0.09-0.746-0.812-1.422c-0.189-0.178-1.2-0.671-1.404-0.671h-1.596
		c-0.368,0-0.479,0.112-0.479,0.479c0,0.474,0.32,0.427,0.32,1.117v0.16c0,1.225-5.43,4.926-6.703,5.266v-0.798h-0.638l-1.286-2.388
		c-1.884-0.048-3.179-1.92-3.98-1.92h-0.319c-2.555,0-4.309,5.134-4.309,7.979c-0.438-0.209-2.083-0.08-2.838,0.034
		c-0.474,0.072-2.349,0.604-2.428,0.604h-0.479l0.62-7.98l-2.059-1.589l-2.073-0.315c-0.115,0.212-0.477,0.844-0.477,1.108
		c0,0.013,0.44,1.616,0.473,2.559c0.031,0.876,0.166,1.716,0.166,2.867v1.595c0,2.183,0.001,4.03,0.002,6.063
		c0.001,1.786-0.394,3.991,1.913,3.991c0.395,0,0.798-1.778,0.798-2.394c1.087-1.624-0.209-2.01,2.453-3.451
		c0.586-0.317,1.654-0.422,2.309-0.723c0.799-0.368,1.222-0.553,1.939-0.933c0.59,1.229,1.328,1.839,2.394,2.553
		c1.47-0.342,2.22,0.479,2.713,0.479h0.638c0.585,0,0.987-0.863,1.314-1.24c0.426-0.488,1.033-0.643,1.558-0.995l1.372-3.632
		l0.752,0.542l1.384,0.236c1.454-0.991,1.751-1.468,2.833-2.774c0.585-0.706,1.814-2.574,2.436-2.99l0.19,6.542
		c0.053,2.334-0.356,4.679-0.348,6.865c0.009,2.165-1.273,4.706,1.594,4.945L165-12.072c0.655-1.125,0.629-3.247,1.029-4.96
		c0.758,0.557,0.483,1.915,2.394,1.915h0.159c0.736,0,1.876-1.2,2.554-1.595c0.613-0.358,1.986-0.877,2.742-1.248
		c1.196-0.586,4.409-2.394,5.716-2.423c-0.032,0.375-2.413,4.528-2.809,5.171c-0.915,1.49-0.521,1.057-1.777,2.212
		c-0.47,0.432-2.276,1.101-2.276,1.713c0,0.713,1.467,2.234,2.074,2.234h0.319c1.332,0,4.292-4.308,8.777-4.308h1.276
		c0.393,0,1.597,0.308,1.597,0.798v0.479c0,0.824-0.958,2.962-0.958,3.99v1.915c0,0.142,0.929,1.641,1.068,1.804
		c0.682,0.798,0.989,0.364,1.804,0.909l1.787-1.559c-0.031-1.958,0.767-3.441,0.767-4.825v-2.872c0-2.645-1.815-4.149-4.468-4.149
		h-1.118c-2.918,0-5.535,1.664-7.341,2.873c0.05-0.605,1.43-1.829,1.877-2.273c0.662-0.658,1.235-1.583,1.763-2.385
		c0.443-0.673,0.863-2.314,1.615-2.535c0.711-0.207,0.98-0.016,1.391-0.683c0.079-0.128,0.694-1.375,0.694-1.38
		C185.656-23.765,185.124-24.1,184.699-24.214z"/>
	<path fill-rule="evenodd" clip-rule="evenodd" d="M103.313-27.405c0.771-0.489,3.492,0.129,4.309,0.319
		c-0.083,0.99-3.011,2.802-3.83,3.351c-0.569,0.152-4.309,2.364-4.309,2.713c0,0.694,0.917,1.755,1.755,1.755h0.479v0.479
		c0,0.597-1.596,2.248-1.596,4.947v1.117c0,0.976,2.61,2.713,3.67,2.713h0.16c1.821,0,2.921-1.402,3.786-2.437
		c0.619-0.74,0.765-0.911,1.44-1.592c0.436-0.441,1.121-1.318,1.476-1.556l0.46,0.342l0.762,2.817l-0.155,0.102l2.23,1.601
		c0.611-0.205,2.128-0.436,2.128-1.032c0-1.262-0.957-1.278-0.957-1.916V-14c0-1.084,0.036-2.427,0.583-3.407
		c0.46-0.823,0.959-2.11,1.811-2.338v2.712l0.319,6.224c0.573,0.855,1.484,4.469,2.553,4.469c0.5,0,0.453-0.287,0.639-0.638
		l-0.379-3.346l0.06-2.24c0-0.357,0.126-0.35,0.319-0.638c-0.016-0.721-0.216-0.663-0.16-1.277l1.118-11.969l0.159-0.16l0.16-1.915
		l0.159-0.16v-0.638l-0.159-0.16l-0.16-0.159l-0.159-0.16l-0.16-0.16l-0.16-0.159l-0.16-0.16l-2.074-0.319l-0.16,0.16l-0.16,0.159
		l-0.16,0.319l-0.16,0.798l-0.159,0.958l-0.319,1.117l-0.16,0.638l-0.16,0.638l-0.206,2.39l-2.472,2.751l0.804-5.453l-0.042-0.326
		c0-1.029-1.294-2.074-2.394-2.074c-1.425,0-2.713,8.433-2.713,10.851c-0.606,0.905-1.734,1.632-2.681,2.266
		c-0.364,0.244-2.917,1.564-3.224,1.564h-0.16c-0.261,0-0.479-0.095-0.479-0.319c0-0.842,0.826-3.054,1.076-3.712
		c0.383-1.007,0.43-0.41,0.778-1.616c0.124-0.43,0.427-1.076,0.644-1.59c0.163-0.384,1.947-1.974,2.354-2.273
		c0.598-0.439,1.69-2.139,1.69-2.938v-1.117c0-1.657-3.144-4.149-4.947-4.149l-0.459-0.342c-1.187,0.023-2.576-0.352-4.01-0.458
		c-2.071-0.154-1.598,0.257-2.393,1.757c0.366,0.763,0.475,3.671,1.596,3.671h0.159C101.153-26.926,101.892-27.405,103.313-27.405z"
		/>
	<path fill-rule="evenodd" clip-rule="evenodd" d="M83.684-13.521c0.206-0.773,0.883-1.452,1.131-2.699
		c0.192-0.964,0.305-2.184,0.305-3.365v-0.319c0-0.292-0.933-1.639-1.118-1.915l-1.276-0.164L82.726-21.5
		c-0.886,0.073-1.445,2.501-1.756,3.19c-0.614,1.362-1.061,1.997-1.724,3.224c-0.276,0.511-1.849,2.262-2.593,2.354
		c-1.506,0.186-2.545,0.664-2.545,2.242c0,1.307,0.519,1.756,1.915,1.756l0.46,0.342l1.609-0.223
		c0.223,0.012,2.533-0.124,3.033-0.123c1.294,0.001,1.907-0.159,3.196-0.156c1.397,0.004,5.039-0.335,6.101-0.601
		c2.034-0.512,3.544-0.9,5.271-1.432c0.873-0.269,1.584-0.533,2.485-0.866c0.354-0.131,1.462-1.557,1.462-1.889v-0.16
		c0-0.749-2.453-1.915-3.351-1.915h-0.479c-0.362,0-1.223,1.111-2.406,1.264c-1.093,0.141-2.046,0.187-3.109,0.401
		C88.948-13.817,85.103-13.521,83.684-13.521z"/>
	<path fill-rule="evenodd" clip-rule="evenodd" d="M91.292-32.46c-1.606-0.765-7.288-1.647-9.683-1.647
		c-0.55,0-0.618,0.118-1.117,0.159v-0.479c-0.482,0.112-0.958,0.092-0.958,0.638c0,0.477,1.119,2.074,1.596,2.394l2.231-0.191
		c0.972-0.065,6.546,1.39,6.546,2.106v0.958c0,0.641-1.117,1.972-1.117,3.351l-0.342,0.46c0.023,1.551-0.615,2.604-0.615,4.168
		c0,2.274,0.54,4.186,1.915,5.106l0.375-0.443c0.301,0.204,0.504,0.603,0.902,0.603c0.357,0,0.35-0.126,0.638-0.319
		c0-1.906,0.963-3.796,1.876-4.826c0.399-0.45,1.794-4.098,1.794-4.75c0-2.673-0.524-3.006-0.945-4.8
		C94.018-31.547,92.64-31.818,91.292-32.46z"/>
	<path fill-rule="evenodd" clip-rule="evenodd" d="M121.824-16.713l-0.16,1.276c0.278,0.58,0.339,2.553,1.276,2.553h0.639
		l-0.152-0.102l0.95-1.174c0-0.99,1.576-3.351,1.916-3.351c0.165,0,1.611,1.7,1.755,1.915c0.245,0.065,3.116,1.596,3.352,1.596
		h0.319c0.385,0,0.958-0.574,0.958-0.958v-0.16c0-0.388-1.764-1.866-2.075-2.074v-0.799c-0.371-0.248-2.075-1.609-2.075-2.074v-0.16
		c0-0.029,2.859-3.582,3.149-3.872c0.777-0.777,0.767-1.146,1.525-1.986c0.581-0.646,0.272-1.549,0.272-2.759l-0.922-1.18
		l-0.354-0.096c-1.72,0-4.499,3.864-5.456,5.077c-0.769,0.975-1.707,1.876-2.334,2.932c-0.377,0.632-1.534,2.887-1.945,3.163
		L121.824-16.713z"/>
	<path fill-rule="evenodd" clip-rule="evenodd" d="M103.791-23.735c0.819-0.549,3.747-2.361,3.83-3.351
		c-0.816-0.19-3.538-0.809-4.309-0.319l4.159,0.383l0.073,0.2L103.791-23.735z"/>
	<path fill-rule="evenodd" clip-rule="evenodd" d="M121.824-16.713l-0.262,1.284c0.21,0.55,0.34,2.706,1.219,2.706h0.479
		c0.566,0,0.381-0.836,1.277-1.436v-0.798c0.96-0.644,0.558-1.485,1.915-2.394l1.596,1.756c-0.144-0.215-1.59-1.915-1.755-1.915
		c-0.34,0-1.916,2.361-1.916,3.351l-0.95,1.174l0.152,0.102h-0.639c-0.937,0-0.998-1.973-1.276-2.553L121.824-16.713z"/>
	<path fill-rule="evenodd" clip-rule="evenodd" d="M119.271-30.437l-0.16,0.159l-0.16,0.319l-0.16,0.798l-0.159,0.958l-0.319,1.117
		l-0.16,0.638l-0.16,0.638l0.16-0.638l0.16-0.638l0.319-1.117l0.159-0.958l0.16-0.798l0.16-0.319L119.271-30.437l0.16-0.16
		l2.074,0.319l0.16,0.16l0.16,0.159l0.16,0.16l0.159,0.16l0.16,0.159l0.159,0.16v0.638l-0.159,0.16l-0.16,1.915l-0.159,0.16
		l0.159-0.16l0.16-1.915l0.159-0.16v-0.638l-0.159-0.16l-0.16-0.159l-0.159-0.16l-0.16-0.16l-0.16-0.159l-0.16-0.16
		c-0.449-0.312-1.394-0.751-2.074-0.319L119.271-30.437z"/>
</g>
<g>
	<path fill-rule="evenodd" clip-rule="evenodd" d="M18.896-17.215l0.16,0.16l0.16,0.159l0.159,0.16v0.159l-0.159,0.16l-0.371,1.097
		l-0.586,0.02c-0.358,0-0.351,0.126-0.639,0.319l-0.173,0.311l-0.784,0.009l-0.16,0.159c-0.114,0.055-3.461,0.764-3.921,0.867
		c-1.905,0.424-2.009,0.411-3.898,0.411H8.044v-0.32l-1.276,0.163l-0.46-0.346c-2.01,0.023-1.774-0.256-1.774-2.53v-2.873
		c0-0.686,0.186-0.865,0.319-1.436h1.437c0.554,0,0.244-0.319,0.797-0.319h1.915l5.105,0.343l0.64-0.024l3.5-0.541l0.649,0.062
		v0.958l0.16,0.957l0.184,0.312l0.159-0.303l0.772,0.158c-0.015,0.736-0.018,0.787-0.637,0.951l0.179-0.632l-0.649,0.188
		L18.896-17.215L18.896-17.215z M10.757-32.375l-0.16,0.16l-0.16,0.159l0.174,1.115l0.146,2.556l0.16,0.159v1.915l-0.16,2.234
		L9.959-23.12c-0.558,0.354-2.028,0.153-2.873,0.16c-2.245,0.02-0.891-0.327-1.595-1.437l0.319-0.798l-0.16-0.479l-0.159-0.319
		l-0.16-0.478l-0.16-0.16l-0.16-0.16l-0.958-0.159L3.417-26.79l-0.319,0.16l-0.16,0.16l-0.16,0.159l-0.159,0.16l-0.16,0.478
		L2.3-25.513l-0.639,0.957l-0.16,1.277l-0.16,0.159l-0.159,0.16v0.798l-0.185-0.084l-0.613,1.361l-0.159,0.958l-0.16,0.639v2.074
		h0.479v-1.436l0.198-0.014l0.122,2.567v0.319v1.436l0.16,0.16l0.16,0.16l0.159,0.16l0.16,0.319v0.479l0.16,0.798l0.319,0.957
		l0.16,0.16c0.633,0.23,0.202,0.414,1.422,0.653c0.653,0.128,0.916,0.152,1.77,0.145c0.63-0.006,1.567,0.165,1.851,0.108
		c0.793-0.158,0.515-0.268,1.66-0.268l0.638-0.159l0.173-0.311l1.423-0.008l0.478-0.16l0.798-0.16l0.16-0.159l0.479-0.16h0.479
		l0.479-0.479l0.935-0.019l0.405-0.307l2.97-1.27h0.798c0.867-0.582,2.713-2.007,2.713-3.351v-1.596
		c0-0.586-0.248-0.772-0.479-1.117c0.087-0.374,0.16-0.472,0.16-0.958l0.036-0.164l-0.196-1.75
		c-0.551-0.793-0.483-3.191-1.437-3.191h-0.638c-0.368,0-0.479,0.11-0.479,0.478v0.639c0,0.554,0.32,0.243,0.32,0.798
		c0,0.606-2.547,1.117-3.192,1.117h-1.755c-0.454,0-1.207-0.615-1.437-0.958l0.958-3.351l-0.054-0.696l1.81-1.538
		c-0.344-1.476-0.708-2.264-1.437-3.351l-0.159-0.16l-0.16-0.159l-2.714-0.3L10.757-32.375z"/>
	<path fill-rule="evenodd" clip-rule="evenodd" d="M48.897-25.851c0.107,0.22,0.319,0.546,0.319,0.817
		c0,0.775-1.79,1.276-2.873,1.276h-0.638c-0.374,0-0.639-0.265-0.639-0.638v-0.638c0-0.384,0.259-0.469,0.48-0.858L48.897-25.851
		L48.897-25.851z M50.812-25.194c0-0.49,0.468-0.638,0.958-0.638h0.958l1.276,0.043l2.394-0.043v0.478
		c0,0.517-0.693,0.958-1.276,0.958h-3.83c-0.368,0-0.479-0.111-0.479-0.479V-25.194L50.812-25.194z M51.291-27.907
		c0-0.671,0.817-2.074,1.436-2.074c1.039,0,3.511,0.414,3.511,1.276v0.32c0,0.43-0.076,0.439-0.16,0.797l-2.706,0.37l-1.603-0.05
		c-0.368,0-0.479-0.112-0.479-0.479V-27.907L51.291-27.907z M48.414-30.342l0.324,0.041c0.646,0,1.436,0.173,1.436,0.798v1.118
		c0,0.357-0.661,1.276-1.118,1.276h-3.191c-0.65,0-0.858-0.252-1.118-0.638c0.094-1.121,0.714-1.91,1.438-2.375L48.414-30.342
		L48.414-30.342z M44.603-31.12l-0.812,0.5c0,0.906-0.945,2.648-1.219,4.539c-0.15,1.035,1.51,3.679,2.173,3.568l3.187-0.291
		L47.78-22.42l6.862,0.098l0.166,0.044l2.834-0.395l0.324-0.29l0.187-2.392v-1.755c0-3.449-4.995-4.86-8.781-4.504L44.603-31.12z"/>
	<path fill-rule="evenodd" clip-rule="evenodd" d="M42.673-21.843l-2.553,2.554l-0.16,0.319l-0.16,0.319l-0.319,0.798l-0.16,0.159
		l-0.16,0.798c-0.072,0.307-0.319,0.911-0.319,1.117c0,1.116,0.87,1.344,0.958,2.394c1.022,0.085,0.578,0.638,1.277,0.638h1.117
		c1.405,0,1.752-1.167,2.394-1.596c0,2.767,1.868,4.243,4.183,4.606c0.5,0.079,3.3-0.41,3.86-0.553
		c0.855-0.219,3.114-1.021,3.398-1.079l0.847-0.581c-0.083-0.358-0.159-0.367-0.159-0.798v-0.957c0-0.837,1.523-0.289,2.079-0.151
		l0.634-0.328c0.43-0.642,1.436-1.501,1.436-2.234v-0.16c0-1.172-1.981-3.343-2.075-4.468c-0.822-0.192-0.807-0.639-1.276-0.639
		c-0.224,0-0.319,0.217-0.319,0.479c0,0.956,2.234,2.16,2.234,4.468v0.159c0,0.442-0.52,0.771-0.798,0.958
		c-0.558,0.13-0.538,0.319-1.117,0.319c-1.014,0-1.826-3.192-2.713-3.192h-1.117l-0.163,0.029l0.37,1.894l0.113,1.588v1.915
		c0,0.777-1.317,1.036-1.915,1.436c-1.451,0-2.339,0.369-3.528,0.181c-0.768-0.122-0.858-0.089-1.308-0.61
		c-0.097-0.111-0.75-1.325-0.81-1.332l0.38-4.143c0.154-0.229,0.639-0.833,0.639-1.117v-0.16c0-0.374-0.265-0.638-0.639-0.638
		h-0.798c-0.766,0-0.505,1.146-0.798,1.755l-0.16,0.16l-0.159,0.319l-0.16,0.16l-0.159,0.159l-0.159,0.16l-0.16,0.159l-0.16,0.16
		l-0.16,0.16l-0.159,0.16l-0.16,0.159l-0.16,0.16l-0.159,0.16l-0.16,0.16L42.993-15.3l-0.479,0.319
		c-0.236,0.323-0.366,0.479-0.957,0.479h-0.479c-0.368,0-0.479-0.11-0.479-0.479v-0.16c0-0.59,0.082-0.775,0.319-1.117l0.16-0.798
		l0.16-0.798l0.319-0.479l0.159-0.16l0.16-0.319l0.16-0.159l1.436-1.596l0.16-0.16l0.319-0.16l0.16-0.159v-0.798l-0.16-0.16
		L42.673-21.843z"/>
	<path fill-rule="evenodd" clip-rule="evenodd" d="M30.545-37.482l-0.16,0.16v0.319h-0.319l-0.16,0.16l-0.159,0.159l-0.16,0.16
		l-0.159,0.16l0.638,2.394l0.159,0.319l0.16,0.16v0.958l-0.16,0.16l-0.159,0.479l-0.797,0.159l-0.639,0.16l-1.755,0.479v0.319
		h-1.117l0.189,0.467l-0.668,0.011l-0.16,0.16l-0.159,0.16l-0.638,0.16l-0.506,0.613c-1.399,0.025-1.83,0.823-0.93,0.823
		c0.414,0,0.873-0.688,1.277-0.958H24.8l0.479-0.16l0.16-0.159l1.306-0.148l-0.167,0.561l2.85-0.573l0.319,0.479
		c-1.113,0.403-1.833,7.951-1.433,8.786l-0.482,0.151c0.102,0.428,0.159,0.301,0.159,0.639c0,0.706-0.159,0.364-0.159,1.276v0.798
		l0.275-0.003l0.212-2.695l0.311-0.174c0-1.229,0.884-2.802,0.955-4.79c0.032-0.879,0.939-4.306,1.599-4.306h0.958
		c1.05,0,5.025,0.89,5.588,1.273c0.853,0.582,1.313,0.473,2.229,1.122c0.566,0.402,1.402,1.256,2.236,1.275
		c-0.095-1.144-3.394-3.221-4.533-3.606c-1.884-0.637-4.459-1.386-6.319-1.819c0.087-1.044,4.47-5.667,1.013-5.78l-0.375-0.604
		L30.545-37.482z"/>
	<path fill-rule="evenodd" clip-rule="evenodd" d="M23.364-12.747l-1.433,0.974l1.752-0.335l4.149-0.797
		c0.264,0.987,1.338,3.67,2.393,3.67l0.325,0.035l1.431-0.195c0.73-1.379,0.817-0.723,1.309-2.68
		c0.179-0.71,0.684-1.928,0.992-2.998c0.124-0.427,0.896-2.599,1.071-2.918c0.458-0.837,1.255-1.512,1.255-2.734
		c1.007,0.023,1.406,1.581,1.596,2.394l0.707,0.722l-0.51-2.608c-0.188-0.493-0.608-1.625-1.313-1.625
		c-0.6,0-1.853,3.414-2.713,3.99l-1.596,3.67c0,1.075-1.049,3.83-1.756,3.83c-0.603,0-2.712-3.561-2.712-3.83l-0.057-3.836
		l0.376-2.547l-0.311,0.174l-0.212,2.695l-0.275,0.003v-0.798c0-0.912,0.159-0.57,0.159-1.276c0-0.337-0.057-0.211-0.159-0.639
		l0.482-0.151c-0.4-0.835,0.32-8.382,1.433-8.786l-0.319-0.479l0.159,0.319c-0.711,0.521-0.979,2.389-1.112,3.516
		c-0.069,0.594-0.649,3.94-0.662,3.988l0.178,1.433l-0.238,0.004l-0.183,1.744l0.262,1.285c-0.082,0.118-0.327,0.406-0.333,0.48
		l0.333,2.233c-0.461,0.872-2.512,1.755-3.832,1.753L23.364-12.747L23.364-12.747z M21.449-11.63h-0.16l-0.665,0.666l0.144,0.074
		l1.147-0.929L21.449-11.63z"/>
	<path fill-rule="evenodd" clip-rule="evenodd" d="M48.738-20.407l-0.16,0.479l-0.16,0.479l-0.16,0.479
		c-0.273,1.025-0.797,0.812-0.797,2.713v1.755c0,0.475,2.771,1.915,2.873,1.915h1.117l-0.178,0.009l-0.191-5.105l-0.429-2.404
		v-0.479l-0.479-0.319l-0.16-0.159l-0.796-0.166L48.738-20.407z"/>
	<path fill-rule="evenodd" clip-rule="evenodd" d="M24.322-29.822l0.638-0.16l0.159-0.16l0.16-0.16l0.668-0.011l-0.189-0.467h1.117
		v-0.319l1.755-0.479l0.639-0.16l0.797-0.159l0.159-0.479l0.16-0.16v-0.958l-0.16-0.16l-0.159-0.319l-0.638-2.394l0.159-0.16
		l0.16-0.16l0.159-0.159l0.16-0.16h0.319v-0.319l0.16-0.16l-0.16,0.16l-0.319,0.319l-0.16,0.16l-0.159,0.159l-0.16,0.16l-0.159,0.16
		c-0.555,0.874,0.235,1.93,0.638,2.394l0.159,0.319l0.16,0.16v0.958l-0.16,0.16l-0.159,0.479l-0.797,0.159l-0.639,0.16l-1.755,0.479
		c-0.195,0.109-0.171,0.16-0.479,0.16l-0.722,0.046l-0.396,0.592l-0.16,0.16l-0.159,0.16L24.322-29.822l-1.854,0.668l-0.061-0.189
		c-0.07,0.845-1.207,1.257-2.083,1.273l-0.181,0.471l-0.079-0.145l-1.125,0.787l0.117,0.167h0.479c0.146,0,1.192-0.794,1.429-0.93
		l0.675,0.121l-0.169-0.403l0.77-0.341l0.843,0.154l0.923-0.973l0.796-0.181l0.479-0.16l0.16-0.159l-0.16,0.159l-0.479,0.16h-0.638
		c-0.404,0.271-0.863,0.958-1.277,0.958c-0.899,0-0.469-0.798,0.93-0.823L24.322-29.822z"/>
	<path fill-rule="evenodd" clip-rule="evenodd" d="M18.417-5.726c0,0.517,0.558,0.586,0.958,0.798
		c0.459-0.308,0.958-0.284,0.958-0.798c0-0.344-0.641-0.957-0.798-0.957C19.473-6.683,18.417-5.801,18.417-5.726z"/>
	<g>
		<path fill-rule="evenodd" clip-rule="evenodd" fill="#ED1C24" d="M64.377-15.619l0.797,0.479l0.16-0.16l0.16-0.319v-0.319
			l0.478,0.16v0.319L65.813-15.3l-0.16,0.16l-0.16,0.16l-0.16,0.319l-0.16,0.159l-0.319,0.479h-0.478h-0.16l-0.967-0.295
			l0.487-1.141l0.16-0.16l0.159-0.319l0.16-0.159l0.474-0.183L64.377-15.619L64.377-15.619z M59.11-9.874l-0.145,1.409l3.337,1.623
			c0-1.575,0.638-1.603,0.638-2.075v-0.159c0-0.61,0.049-0.058-0.211-0.548L61.98-9.055l-0.795-0.181
			c-0.425-0.114-0.958-0.449-0.958-0.958v-0.479c0-0.45,0.069-0.295,0.319-0.479l0.16-0.16l1.414-0.487l0.501-1.427
			c-0.166-0.249-0.211-0.479-0.639-0.479h-0.479l0-0.324l2.394,0.483h0.319l1.815,0.691l1.216-1.329v-0.16l0.777-0.384l0.145,0.161
			l-0.936,1.183l0.173,1.115l0.319,0.319c0.011-0.04,1.312-2.221,1.313-2.223c1.209-0.903-0.173,1.473-0.193,1.722l0.635,0.182
			l0.883,0.303l-0.085,0.176c-0.5-0.042-0.567-0.16-1.117-0.16h-0.479c-0.358,0-0.351,0.126-0.638,0.319l-0.16,0.16l-0.472,1.242
			l1.11,0.194v0.319h-0.638l-1.11,1.583L67.249-7.8l0.799,0.471L67.089-7.48L66.451-7.8l-0.479-0.16L65.494-7.48h0.478
			c0.368,0,0.479,0.11,0.479,0.479v0.319c0,0.324-0.947,1.596,0,1.596h0.638c0.407,0,0.736-0.542,1.118-0.798l1.276-3.191
			l0.319-0.798v-0.639l0.319-0.159l0.32-0.798l0.478-0.958l0.152-0.959c-0.393-0.833-0.068-0.454-0.791-0.956l-0.958-0.638
			l-1.576-0.395l-1.615-0.881l-0.16-0.16l-0.478-0.16l-0.639-0.159l-0.638-0.319c-0.45-0.105-0.812-0.32-1.277-0.32
			C61.826-17.375,59.687-11.075,59.11-9.874z"/>
		<path fill-rule="evenodd" clip-rule="evenodd" fill="#ED1C24" d="M64.217-10.353l-0.319,0.638v0.798h0.479
			c0.067-0.808,0.156-1.209,0.902-1.296l0.374-0.778L66-11.718l0.132,1.365c0.358,0.083,0.367,0.16,0.798,0.16
			c0.358,0,0.309-0.603,0.479-0.958l-0.16-0.479l-0.16-0.159l-0.478-1.117l-0.16,0.159l-0.16,0.16l-0.159,0.16l-0.16,0.16
			l-0.159,0.159l-0.474,0.183l0.155-0.342c-0.197-0.546-1.264-0.744-1.915-0.798l-1.129,1.747l0.974,1.122
			c0.959-0.642,0.82-1.674,1.75-1.752L64.217-10.353z"/>
		<polygon fill-rule="evenodd" clip-rule="evenodd" fill="#ED1C24" points="62.94,-7.8 62.781,-7.64 62.781,-7.321 62.607,-6.834 
			62.781,-6.523 63.579,-6.204 64.377,-6.044 64.536,-5.885 64.696,-5.726 65.6,-5.4 65.653,-6.044 65.813,-7.002 65.174,-7.162 
			63.259,-7.48 63.251,-7.974 		"/>
		<polygon fill-rule="evenodd" clip-rule="evenodd" fill="#ED1C24" points="60.866,-10.832 60.864,-10.352 61.185,-9.715 
			61.823,-9.715 62.142,-10.193 62.142,-10.991 61.982,-11.151 61.025,-11.151 		"/>
		<polygon fill-rule="evenodd" clip-rule="evenodd" fill="#ED1C24" points="65.174,-9.076 65.813,-8.917 66.451,-8.917 
			66.611,-9.076 66.611,-9.396 66.451,-9.555 65.174,-9.555 		"/>
		<path fill-rule="evenodd" clip-rule="evenodd" fill="#ED1C24" d="M63.259-8.119c0.94,0.079,0.333,0.319,0.958,0.319
			c0.43,0,0.439,0.076,0.798,0.16c-0.038-0.45,0.003-0.638-0.479-0.638C64.099-8.278,63.363-8.728,63.259-8.119z"/>
		<path fill-rule="evenodd" clip-rule="evenodd" fill="#ED1C24" d="M64.377-14.343h0.319l0.159-0.479
			c-0.195-0.109-0.171-0.16-0.478-0.16h-0.16c-0.483,0-0.442,0.188-0.479,0.638H64.377z"/>
	</g>
	<g>
		<path d="M26.869-4.408c0.142,0.212,0.199,0.462,0.17,0.751c-0.029,0.346-0.198,0.651-0.506,0.917
			c-0.309,0.266-0.735,0.398-1.279,0.398c-0.585,0-1.049-0.187-1.393-0.559s-0.505-0.756-0.485-1.152h0.791
			c0,0.264,0.105,0.489,0.315,0.676s0.467,0.281,0.772,0.281c0.28,0,0.495-0.052,0.646-0.154c0.15-0.103,0.244-0.237,0.281-0.402
			c0.033-0.148,0.009-0.277-0.071-0.386c-0.08-0.109-0.192-0.197-0.336-0.263c-0.202-0.103-0.412-0.173-0.63-0.21
			s-0.447-0.105-0.686-0.204c-0.296-0.119-0.528-0.283-0.695-0.491c-0.167-0.208-0.24-0.469-0.219-0.782
			c0.021-0.292,0.165-0.575,0.432-0.849c0.268-0.274,0.68-0.411,1.236-0.411c0.625,0,1.069,0.188,1.331,0.565
			c0.261,0.377,0.382,0.701,0.361,0.973h-0.791c-0.004-0.206-0.078-0.388-0.22-0.546c-0.142-0.159-0.365-0.238-0.67-0.238
			c-0.309,0-0.521,0.06-0.636,0.179c-0.115,0.119-0.177,0.247-0.186,0.383c-0.012,0.157,0.044,0.281,0.17,0.374
			c0.125,0.093,0.265,0.168,0.417,0.226c0.165,0.058,0.368,0.113,0.608,0.167c0.241,0.053,0.485,0.144,0.732,0.271
			C26.547-4.781,26.727-4.62,26.869-4.408z"/>
		<path d="M27.818-2.477v-4.639h0.791v4.639H27.818z"/>
		<path d="M32.197-2.465l-1.841-3.311l-0.012,3.311h-0.815v-4.651h0.97l1.872,3.311v-3.311h0.809v4.651H32.197z"/>
		<path d="M38.003-4.021c-0.074,0.362-0.277,0.731-0.608,1.106c-0.332,0.375-0.802,0.562-1.412,0.562
			c-0.655,0-1.173-0.228-1.554-0.683S33.858-4.079,33.858-4.8s0.19-1.307,0.571-1.76s0.899-0.68,1.554-0.68
			c0.638,0,1.118,0.192,1.439,0.578c0.321,0.385,0.508,0.732,0.562,1.041l-0.871,0.006c-0.049-0.193-0.16-0.387-0.331-0.581
			c-0.171-0.193-0.429-0.291-0.775-0.291c-0.396,0-0.71,0.155-0.945,0.463c-0.235,0.309-0.352,0.717-0.352,1.223
			c0,0.511,0.117,0.922,0.352,1.235s0.55,0.47,0.945,0.47c0.329,0,0.585-0.102,0.769-0.306c0.183-0.204,0.303-0.411,0.361-0.621
			H38.003z"/>
		<path d="M38.615-2.477v-4.639h3.237v0.748h-2.44v1.149h2.322v0.741h-2.322v1.254l2.508-0.006v0.754H38.615z"/>
		<path d="M45.854-2.465v-3.138l-0.982-0.006v-0.686c0.136,0,0.272-0.019,0.408-0.056s0.262-0.097,0.377-0.179
			c0.082-0.062,0.156-0.145,0.222-0.25c0.066-0.105,0.099-0.213,0.099-0.325h0.686v4.639H45.854z"/>
		<path d="M50.487-6.878c0.272,0.245,0.463,0.547,0.575,0.905c0.107,0.33,0.156,0.737,0.148,1.223
			c-0.008,0.486-0.076,0.894-0.204,1.223c-0.14,0.358-0.341,0.644-0.603,0.855c-0.261,0.212-0.586,0.318-0.973,0.318
			c-0.412,0-0.764-0.139-1.057-0.417c-0.292-0.278-0.455-0.582-0.488-0.911h0.741c0.025,0.144,0.1,0.285,0.226,0.423
			c0.125,0.138,0.31,0.207,0.553,0.207c0.247,0,0.433-0.065,0.556-0.194c0.124-0.13,0.218-0.275,0.284-0.436
			c0.058-0.156,0.092-0.306,0.105-0.448c0.012-0.142,0.016-0.258,0.012-0.349c-0.091,0.107-0.229,0.207-0.417,0.3
			c-0.188,0.092-0.398,0.137-0.633,0.133c-0.424-0.008-0.775-0.158-1.053-0.448c-0.278-0.29-0.409-0.67-0.392-1.14
			c0.017-0.453,0.169-0.835,0.457-1.146c0.289-0.311,0.659-0.467,1.112-0.467C49.865-7.246,50.215-7.124,50.487-6.878z
			 M50.055-5.025c0.148-0.158,0.222-0.365,0.222-0.621s-0.074-0.459-0.222-0.611c-0.148-0.152-0.338-0.229-0.568-0.229
			c-0.239,0-0.433,0.077-0.581,0.229c-0.148,0.152-0.222,0.356-0.222,0.611s0.074,0.462,0.222,0.621
			c0.148,0.159,0.342,0.238,0.581,0.238C49.717-4.788,49.907-4.867,50.055-5.025z"/>
		<path d="M54.274-5.078c0.276,0.309,0.414,0.684,0.414,1.124c0,0.445-0.151,0.824-0.454,1.137s-0.681,0.47-1.133,0.47
			c-0.424,0-0.771-0.123-1.041-0.368c-0.27-0.245-0.462-0.549-0.578-0.911c-0.103-0.325-0.149-0.733-0.139-1.223
			s0.082-0.9,0.213-1.229c0.136-0.35,0.337-0.631,0.605-0.843c0.268-0.212,0.593-0.318,0.976-0.318c0.416,0,0.765,0.137,1.047,0.411
			c0.282,0.274,0.438,0.58,0.466,0.917h-0.735c-0.025-0.144-0.1-0.285-0.226-0.423c-0.126-0.138-0.312-0.207-0.559-0.207
			c-0.243,0-0.424,0.063-0.543,0.191c-0.12,0.127-0.212,0.274-0.278,0.438c-0.062,0.165-0.1,0.315-0.114,0.451
			c-0.014,0.136-0.021,0.247-0.021,0.333c0.107-0.103,0.245-0.198,0.414-0.284c0.168-0.086,0.383-0.13,0.642-0.13
			C53.65-5.541,53.998-5.387,54.274-5.078z M53.666-3.305c0.154-0.161,0.232-0.377,0.232-0.649c0-0.268-0.078-0.481-0.232-0.642
			s-0.353-0.241-0.596-0.241c-0.243,0-0.442,0.081-0.599,0.241c-0.156,0.161-0.235,0.375-0.235,0.642
			c0,0.272,0.079,0.488,0.235,0.649c0.157,0.161,0.356,0.241,0.599,0.241C53.313-3.064,53.511-3.144,53.666-3.305z"/>
		<path d="M57.884-4.451c0.146,0.204,0.219,0.427,0.219,0.67c0,0.391-0.154,0.727-0.463,1.007c-0.309,0.28-0.696,0.42-1.161,0.42
			c-0.449,0-0.836-0.14-1.162-0.42c-0.325-0.28-0.476-0.641-0.451-1.081h0.797c-0.017,0.222,0.051,0.404,0.204,0.546
			s0.354,0.213,0.605,0.213c0.243,0,0.437-0.066,0.581-0.198s0.225-0.294,0.241-0.488c0.008-0.148-0.033-0.288-0.124-0.417
			c-0.091-0.13-0.221-0.219-0.389-0.269c-0.111-0.029-0.221-0.044-0.328-0.046c-0.107-0.002-0.206-0.003-0.296-0.003v-0.723
			c0.132,0,0.252-0.009,0.361-0.028s0.209-0.053,0.3-0.102c0.09-0.049,0.167-0.118,0.229-0.207c0.062-0.088,0.097-0.196,0.105-0.324
			c0.012-0.14-0.036-0.283-0.146-0.429c-0.109-0.146-0.287-0.219-0.534-0.219c-0.239,0-0.418,0.071-0.537,0.213
			c-0.12,0.142-0.173,0.304-0.161,0.485h-0.778c-0.021-0.387,0.113-0.716,0.401-0.985c0.288-0.27,0.645-0.405,1.069-0.405
			c0.44,0,0.799,0.131,1.075,0.392c0.276,0.262,0.414,0.565,0.414,0.911c0,0.28-0.069,0.508-0.207,0.683
			c-0.138,0.175-0.275,0.293-0.411,0.355C57.556-4.804,57.738-4.655,57.884-4.451z"/>
	</g>
	<path fill-rule="evenodd" clip-rule="evenodd" d="M22.268-11.838c0,0-3.036,5.12-2.725,5.417c0,0-0.02-3.188,0.556-4.005
		c0.576-0.817,2.299-1.664,2.299-1.664L22.268-11.838z"/>
</g>
<text transform="matrix(1 0 0 1 3 48.0928)" font-family="'TmonMonsoriBlack'" font-size="55.2882">古來思</text>
</svg>
