<?xml version="1.0" encoding="utf-8"?>
<!-- Generator: Adobe Illustrator 16.0.0, SVG Export Plug-In . SVG Version: 6.00 Build 0)  -->
<!DOCTYPE svg PUBLIC "-//W3C//DTD SVG 1.0//EN" "http://www.w3.org/TR/2001/REC-SVG-20010904/DTD/svg10.dtd">
<svg version="1.0" id="Layer_1" xmlns="http://www.w3.org/2000/svg" xmlns:xlink="http://www.w3.org/1999/xlink" x="0px" y="0px"
	 width="108.993px" height="44.431px" viewBox="0 0 108.993 44.431" enable-background="new 0 0 108.993 44.431"
	 xml:space="preserve">
<path fill-rule="evenodd" clip-rule="evenodd" fill="#2A2829" d="M37.669,6.21c1.914,0.021,3.713-0.093,5.355,0.888
	c0.633,0.378,0.783,0.874,0.478,1.563c-0.595,1.343-0.497,2.172,0.251,2.622c0.768,0.46,1.815,0.168,2.708-0.778
	c-1.552-0.846-2.163-2.186-1.959-3.897c0.064-0.538,0.231-1.167,0.82-1.305c0.551-0.129,1.002,0.274,1.361,0.708
	c0.832,1.005,0.994,2.183,0.718,3.388c-0.185,0.802,0.131,0.959,0.793,0.962c0.836,0.003,1.525-0.297,1.838-1.091
	c0.304-0.771,0.162-1.542-0.522-2.062c-0.896-0.681-0.979-1.517-0.722-2.52c0.389-1.516,0.929-2.951,1.897-4.205
	c0.513-0.663,0.996-0.633,1.458,0.021c1.04,1.47,1.776,3.068,2.001,4.875c0.095,0.759-0.205,1.321-0.797,1.79
	c-0.717,0.568-0.844,1.353-0.532,2.159c0.317,0.819,1.043,1.043,1.865,1.03c0.608-0.01,0.885-0.166,0.746-0.904
	c-0.217-1.152-0.171-2.313,0.598-3.323c0.368-0.484,0.845-0.947,1.417-0.849c0.7,0.121,0.856,0.868,0.908,1.473
	c0.139,1.621-0.468,2.905-1.938,3.704c0.711,0.973,1.741,1.298,2.605,0.847c0.781-0.408,0.972-1.322,0.384-2.492
	c-0.448-0.891-0.208-1.417,0.617-1.845c1.581-0.819,3.274-0.728,5.043-0.772c-0.075,0.54-0.396,0.787-0.62,1.087
	c-2.429,3.27-4.015,6.868-4.262,10.981c-0.034,0.584-0.144,0.788-0.778,0.497c-4.523-2.069-9.192-2.061-13.917-0.85
	c-0.728,0.187-1.414,0.554-2.1,0.879c-0.446,0.212-0.696,0.16-0.726-0.369c-0.245-4.436-2.011-8.255-4.733-11.688
	C37.843,6.628,37.804,6.489,37.669,6.21z M63.667,6.894c-1.24,0.182-2.288,0.188-3.262,0.686c-0.647,0.332-0.825,0.668-0.475,1.365
	c0.705,1.409,0.539,2.333-0.418,2.975c-0.978,0.656-2.396,0.508-3.226-0.529c-0.452-0.566-0.891-0.602-1.482-0.553
	c-1.198,0.098-2.149-0.35-2.688-1.441c-0.53-1.075-0.215-2.058,0.559-2.896c0.424-0.458,0.638-0.959,0.595-1.573
	C53.171,3.483,52.659,2.19,51.84,1c-0.313-0.455-0.484-0.433-0.867-0.014c-1.04,1.137-1.233,2.549-1.44,3.964
	c-0.076,0.521,0.105,1.009,0.471,1.397c0.848,0.901,1.182,1.94,0.643,3.085c-0.571,1.212-1.663,1.525-2.918,1.404
	c-0.4-0.039-0.705-0.042-1.028,0.355c-0.951,1.168-2.334,1.431-3.365,0.749c-0.968-0.64-1.123-1.589-0.391-3.077
	c0.3-0.609,0.151-0.918-0.392-1.217c-1.009-0.556-2.104-0.607-3.349-0.708c1.971,2.755,3.277,5.667,3.973,8.853
	c5.522-2.363,10.973-2.356,16.443-0.011C60.336,12.549,61.667,9.683,63.667,6.894z M59.501,16.809
	c0.102-0.491-0.167-0.625-0.546-0.795c-0.829-0.373-1.685-0.646-2.561-0.866c-4.309-1.083-8.519-0.844-12.63,0.907
	c-0.791,0.336-0.467,0.961-0.344,1.374c0.147,0.496,0.607,0.093,0.897-0.014c4.739-1.744,9.479-1.742,14.202,0.023
	C59.292,17.726,59.613,17.647,59.501,16.809z M46.788,9.93c0.445-1.107,0.377-2.113-0.122-3.096
	c-0.187-0.368-0.46-0.721-0.896-0.625c-0.428,0.094-0.406,0.543-0.396,0.9C45.403,8.223,45.66,9.234,46.788,9.93z M56.011,9.948
	c1.165-0.743,1.389-1.801,1.364-2.97c-0.006-0.287,0.032-0.644-0.293-0.755c-0.358-0.123-0.631,0.151-0.806,0.421
	C55.641,7.63,55.652,8.687,56.011,9.948z"/>
<path fill-rule="evenodd" clip-rule="evenodd" fill="#2A2829" d="M75.386,25.171c-0.292,0.216-0.189,0.454-0.19,0.652
	c-0.006,3.738-0.011,7.475,0,11.212c0.005,1.557,0.122,1.67,1.665,2.002c0.248,0.053,0.689-0.051,0.637,0.385
	c-0.04,0.326-0.41,0.197-0.638,0.199c-1.379,0.012-2.758,0.01-4.137,0c-0.191-0.001-0.482,0.113-0.542-0.186
	c-0.078-0.395,0.284-0.378,0.502-0.392c1.254-0.078,1.383-0.95,1.4-1.921c0.068-3.99,0.151-7.979,0.208-11.968
	c0.023-1.713-0.107-1.861-1.748-2.308c-0.211-0.058-0.443-0.027-0.436-0.343c0.012-0.41,0.317-0.316,0.553-0.318
	c0.979-0.006,1.961,0.03,2.938-0.017c0.527-0.025,0.674,0.333,0.888,0.656c2.663,4.015,5.632,7.811,8.438,11.723
	c0.181,0.253,0.316,0.7,0.657,0.616c0.469-0.115,0.261-0.612,0.258-0.936c-0.039-3.119-0.137-6.238-0.141-9.357
	c-0.001-1.18-0.415-1.859-1.617-2.007c-0.241-0.03-0.657,0.104-0.632-0.375c0.025-0.486,0.424-0.293,0.666-0.297
	c1.343-0.018,2.686-0.011,4.028-0.006c0.204,0.001,0.468-0.049,0.508,0.255c0.038,0.284-0.162,0.366-0.401,0.39
	c-1.416,0.146-1.447,1.204-1.452,2.248c-0.023,4.499-0.025,8.999-0.06,13.498c-0.002,0.344,0.271,0.849-0.271,1.025
	c-0.576,0.189-0.892-0.146-1.199-0.635c-2.916-4.63-6.323-8.914-9.503-13.358C75.653,25.453,75.511,25.314,75.386,25.171z
	 M85.875,35.426c-0.053-0.066-0.108-0.138-0.164-0.209c-0.044,0.045-0.132,0.104-0.122,0.131c0.029,0.092,0.094,0.173,0.145,0.258
	C85.775,35.555,85.814,35.504,85.875,35.426z"/>
<path fill-rule="evenodd" clip-rule="evenodd" fill="#2A2829" d="M102.916,39.628c-0.943,0.001-1.888,0.005-2.831-0.002
	c-0.199-0.001-0.483,0.082-0.5-0.244c-0.013-0.234,0.223-0.215,0.389-0.273c1.438-0.511,1.536-0.704,1.055-2.127
	c-0.371-1.098-0.794-2.179-1.134-3.286c-0.156-0.509-0.399-0.679-0.925-0.666c-1.343,0.035-2.687,0.032-4.029,0
	c-0.514-0.012-0.767,0.14-0.916,0.653c-0.354,1.217-0.785,2.41-1.168,3.619c-0.374,1.179-0.236,1.396,0.993,1.767
	c0.208,0.063,0.609-0.039,0.551,0.352c-0.055,0.37-0.414,0.196-0.633,0.199c-1.234,0.017-2.469,0.009-3.703,0.001
	c-0.196-0.001-0.478,0.09-0.495-0.244c-0.012-0.231,0.217-0.27,0.382-0.311c1.126-0.28,1.445-1.243,1.783-2.154
	c1.688-4.55,3.354-9.109,5.03-13.664c0.049-0.135,0.128-0.262,0.165-0.4c0.098-0.364,0.195-0.663,0.688-0.684
	c0.562-0.024,0.632,0.347,0.768,0.727c1.661,4.673,3.318,9.35,5.005,14.015c0.313,0.867,0.56,1.878,1.687,2.072
	c0.92,0.158,1.837,0.129,2.396-0.817c0.572-0.972,0.528-1.935-0.132-2.849c-0.221-0.304-0.737-0.567-0.3-0.975
	c0.442-0.411,0.896-0.023,1.238,0.266c1.186,1.001,0.843,3.193-0.648,4.236c-0.759,0.531-1.574,0.866-2.537,0.799
	C104.371,39.587,103.642,39.627,102.916,39.628z M96.948,25.125c-0.797,2.341-1.489,4.395-2.2,6.443
	c-0.142,0.409-0.222,0.669,0.386,0.653c1.194-0.032,2.392-0.023,3.587-0.001c0.456,0.008,0.578-0.153,0.437-0.571
	C98.451,29.569,97.747,27.486,96.948,25.125z"/>
<path fill-rule="evenodd" clip-rule="evenodd" fill="#2A2829" d="M26.248,25.225c-0.082-0.145-0.192-0.288-0.25-0.451
	c-0.468-1.308-1.357-1.863-2.763-1.701c-0.931,0.108-2.171-0.286-2.738,0.187c-0.591,0.493-0.154,1.77-0.18,2.704
	c-0.029,1.015,0.026,2.033-0.019,3.047c-0.027,0.603,0.143,0.823,0.774,0.799c1.232-0.047,2.467-0.006,3.701-0.02
	c0.371-0.004,0.625,0.022,0.608,0.506c-0.016,0.452-0.29,0.419-0.588,0.418c-1.27-0.001-2.54,0.02-3.81-0.009
	c-0.512-0.011-0.69,0.146-0.684,0.674c0.028,2.032,0.01,4.064,0.015,6.096c0.002,0.868,0.42,1.341,1.313,1.386
	c2.282,0.116,4.452-0.031,5.842-2.248c0.101-0.162,0.191-0.556,0.547-0.338c0.231,0.142,0.145,0.401,0.084,0.597
	c-0.734,2.367-1.096,2.851-3.287,2.776c-2.718-0.092-5.441-0.016-8.163-0.032c-0.24-0.001-0.664,0.199-0.684-0.26
	c-0.015-0.339,0.37-0.268,0.596-0.318c1.5-0.334,1.562-0.4,1.563-1.943c0.003-4.063,0.003-8.127,0-12.191
	c-0.001-1.549-0.14-1.719-1.627-2.06c-0.23-0.053-0.569,0.04-0.555-0.349c0.018-0.481,0.417-0.304,0.66-0.305
	c2.939-0.012,5.879,0.025,8.817-0.029c0.875-0.017,1.161,0.488,1.33,1.128C26.932,23.979,27.373,24.791,26.248,25.225z"/>
<path fill-rule="evenodd" clip-rule="evenodd" fill="#2A2829" d="M40.771,25.959c-0.395-0.661-0.716-1.285-1.119-1.851
	c-0.87-1.225-2.096-1.564-3.538-1.34c-1.173,0.183-1.752,0.982-2.022,2.01c-0.373,1.417,0.148,2.58,1.302,3.425
	c0.814,0.596,1.7,1.092,2.542,1.649c1.4,0.925,2.767,1.893,3.262,3.625c0.955,3.347-1.318,6.341-4.961,6.598
	c-1.225,0.086-2.379-0.179-3.515-0.551c-0.86-0.281-1.861-2.659-1.535-3.532c0.034-0.09,0.115-0.192,0.201-0.228
	c0.177-0.072,0.247,0.078,0.307,0.209c0.137,0.295,0.253,0.602,0.408,0.887c0.697,1.272,1.666,2.18,3.19,2.315
	c1.316,0.117,2.579-0.006,3.361-1.238c0.786-1.237,0.731-2.549,0.029-3.818c-0.964-1.741-2.75-2.521-4.292-3.568
	c-2.57-1.745-3.196-4.799-1.35-7.035c0.856-1.037,2.016-1.5,3.337-1.557c0.796-0.034,1.587,0.004,2.38,0.164
	C40.759,22.525,41.45,23.754,40.771,25.959z"/>
<path fill-rule="evenodd" clip-rule="evenodd" fill="#2A2829" d="M52.556,30.781c0,2.105,0.032,4.21-0.012,6.315
	c-0.024,1.109,0.282,1.837,1.516,1.918c0.246,0.017,0.68-0.031,0.621,0.404c-0.047,0.355-0.413,0.2-0.634,0.202
	c-1.779,0.013-3.557,0.009-5.335,0.002c-0.195,0-0.476,0.085-0.508-0.232c-0.031-0.302,0.243-0.301,0.444-0.36
	c1.722-0.516,1.724-0.517,1.725-2.259c0.002-4.174-0.03-8.349,0.025-12.522c0.012-0.902-0.284-1.125-1.093-1.024
	c-0.429,0.053-0.876,0.056-1.304,0c-1.293-0.169-2.24,0.352-2.988,1.368c-0.146,0.197-0.247,0.654-0.62,0.428
	c-0.336-0.204-0.031-0.522,0.042-0.778c0.546-1.921,0.732-2.059,2.709-2.058c3.23,0.001,6.46,0.001,9.691,0
	c0.471,0,0.985-0.081,1.161,0.529c0.217,0.755,0.573,1.516,0.16,2.305c-0.144,0.276-0.454,0.352-0.539-0.024
	c-0.414-1.818-1.762-1.817-3.215-1.773c-1.845,0.055-1.846,0.014-1.846,1.899C52.556,27.007,52.556,28.894,52.556,30.781z"/>
<path fill-rule="evenodd" clip-rule="evenodd" fill="#2A2829" d="M5.263,31.913c0-2.324,0.002-4.648-0.001-6.972
	c-0.001-0.765,0.062-1.586-0.848-1.928c-0.893-0.335-1.826-0.376-2.561,0.31c-0.715,0.667-0.892,1.566-0.572,2.503
	c0.112,0.33,0.331,0.643,0.561,0.91c0.206,0.239,0.408,0.433,0.17,0.743c-0.228,0.297-0.529,0.171-0.796,0.085
	c-0.998-0.323-1.487-1.649-1.064-2.851c0.502-1.428,1.891-2.468,3.494-2.511c1.742-0.047,3.486-0.02,5.229-0.012
	c0.226,0,0.566-0.131,0.627,0.234c0.076,0.452-0.304,0.409-0.579,0.429c-1.146,0.083-1.502,0.731-1.494,1.824
	c0.033,4.539,0.036,9.079,0.003,13.618c-0.017,2.324-1.031,4.113-3.132,5.198c-0.252,0.13-0.634,0.447-0.889,0.117
	c-0.31-0.402,0.237-0.537,0.418-0.727c1.045-1.099,1.396-2.443,1.415-3.89c0.031-2.36,0.008-4.721,0.008-7.081
	C5.256,31.913,5.26,31.913,5.263,31.913z"/>
<path fill-rule="evenodd" clip-rule="evenodd" fill="#2A2829" d="M64.607,39.626c-0.906,0-1.813,0.002-2.72-0.001
	c-0.171-0.001-0.383,0.031-0.407-0.225c-0.023-0.229,0.153-0.284,0.329-0.354c1.857-0.741,1.854-0.743,1.854-2.699
	c-0.002-3.807,0.003-7.615-0.003-11.423c-0.003-1.583-0.118-1.724-1.603-2.073c-0.264-0.062-0.65,0.032-0.578-0.429
	c0.059-0.377,0.398-0.233,0.616-0.234c1.777-0.011,3.555-0.009,5.331,0.002c0.217,0.001,0.561-0.12,0.537,0.311
	c-0.015,0.295-0.262,0.279-0.472,0.332c-1.635,0.41-1.665,0.44-1.667,2.071c-0.006,4.025-0.007,8.05,0,12.076
	c0.003,1.6,0.043,1.632,1.593,2.029c0.223,0.058,0.588,0.024,0.534,0.39c-0.054,0.362-0.404,0.217-0.626,0.221
	C66.42,39.637,65.513,39.627,64.607,39.626z"/>
<path fill-rule="evenodd" clip-rule="evenodd" fill="#2A2829" d="M11.633,39.148c-0.049,0.626-0.367,1.028-1.009,1.015
	c-0.598-0.013-0.914-0.442-0.917-0.995c-0.003-0.587,0.274-1.061,0.952-1.064C11.331,38.099,11.584,38.539,11.633,39.148z"/>
<path fill-rule="evenodd" clip-rule="evenodd" fill="#F7F7F7" d="M46.788,9.93c-1.127-0.696-1.384-1.707-1.414-2.821
	c-0.01-0.356-0.031-0.806,0.396-0.9c0.436-0.096,0.709,0.258,0.896,0.625C47.165,7.816,47.232,8.822,46.788,9.93z"/>
<path fill-rule="evenodd" clip-rule="evenodd" fill="#F7F7F7" d="M56.011,9.948c-0.359-1.261-0.37-2.317,0.266-3.303
	c0.175-0.271,0.447-0.544,0.806-0.421c0.325,0.111,0.287,0.468,0.293,0.755C57.4,8.147,57.176,9.205,56.011,9.948z"/>
<path fill-rule="evenodd" clip-rule="evenodd" fill="#FEFEFE" d="M85.875,35.426c-0.062,0.078-0.101,0.129-0.142,0.18
	c-0.051-0.085-0.115-0.166-0.145-0.258c-0.01-0.027,0.078-0.086,0.122-0.131C85.767,35.289,85.823,35.36,85.875,35.426z"/>
</svg>
