<?xml version="1.0" encoding="UTF-8"?><svg id="_레이어_1" xmlns="http://www.w3.org/2000/svg" viewBox="0 0 112.7 48"><defs><style>.cls-1{fill:#f5911d;}.cls-1,.cls-2{stroke-width:0px;}.cls-2{fill:#221e1f;}</style></defs><path class="cls-1" d="m95.84,12.52l-4.35-3.06,4.29-3.23c.84-.63,1.01-1.83.38-2.67-.63-.84-1.83-1.01-2.67-.38l-4.28,3.21-1.72-5.1c-.34-1-1.42-1.53-2.41-1.2-1,.34-1.53,1.42-1.2,2.41l1.72,5.1-5.35.03c-1.05,0-1.9.86-1.89,1.92,0,1.05.86,1.89,1.91,1.89h.01l5.37-.03-1.6,5.07c-.32,1,.24,2.07,1.24,2.39.19.06.38.09.58.09.81,0,1.56-.52,1.82-1.33l1.61-5.08,4.36,3.07c.86.61,2.05.4,2.65-.46.61-.86.4-2.05-.46-2.66Z"/><path class="cls-2" d="m110.79,17.52c-1.05,0-1.91.85-1.91,1.91v26.67c0,1.05.85,1.91,1.91,1.91s1.91-.85,1.91-1.91v-26.67c0-1.05-.85-1.91-1.91-1.91Z"/><path class="cls-2" d="m100.83,16.23c-.74-.75-1.95-.74-2.7,0-.74.74-.74,1.95,0,2.69l1.02,1.02c.72.72,1.11,1.67,1.11,2.69s-.4,1.97-1.11,2.69l-1.02,1.02s0,0,0,0l-5.39,5.39c-1.8,1.8-2.79,4.2-2.79,6.74s.99,4.94,2.79,6.74c1.8,1.8,4.2,2.79,6.74,2.79,1.05,0,1.91-.85,1.91-1.91s-.85-1.91-1.91-1.91c-1.53,0-2.97-.6-4.05-1.68-2.23-2.23-2.23-5.87,0-8.1l5.4-5.4s0,0,0,0l1.01-1.02c1.44-1.44,2.23-3.35,2.23-5.38s-.79-3.94-2.23-5.38l-1.02-1.02Z"/><path class="cls-2" d="m67.94,31.41h13.78c1.05,0,1.91-.85,1.91-1.91s-.85-1.91-1.91-1.91h-13.78c-1.03,0-1.87-.84-1.87-1.88v-7.07c0-1.05-.85-1.91-1.91-1.91s-1.91.85-1.91,1.91v7.07c0,3.14,2.55,5.69,5.69,5.69Z"/><path class="cls-2" d="m33.36,33.73h20.46c1.05,0,1.91-.85,1.91-1.91s-.85-1.91-1.91-1.91h-4.09c.72-1.42,1.26-3.36,1.26-5.98v-2.24h1.86c1.05,0,1.91-.85,1.91-1.91s-.85-1.91-1.91-1.91h-18.51c-1.05,0-1.91.85-1.91,1.91s.85,1.91,1.91,1.91h1.86v2.24c0,2.62.55,4.56,1.26,5.98h-4.1c-1.05,0-1.91.85-1.91,1.91s.85,1.91,1.91,1.91Zm13.81-12.03v2.24c0,4.43-1.91,5.77-2.28,5.98h-2.62c-.36-.21-2.28-1.54-2.28-5.98v-2.24h7.17Z"/><path class="cls-2" d="m84.43,34.26c-7.63,1.21-15.36,1.21-22.99,0-1.03-.17-2.01.54-2.18,1.58-.17,1.04.54,2.02,1.58,2.18,3.38.54,6.78.84,10.19.93v7.14c0,1.05.85,1.91,1.91,1.91s1.91-.85,1.91-1.91v-7.14c3.4-.08,6.81-.39,10.19-.93,1.04-.16,1.75-1.14,1.58-2.18-.16-1.04-1.15-1.75-2.18-1.58Z"/><path class="cls-2" d="m55.17,41.69c-1.32.21-2.65.38-3.98.52v-5.39c0-1.05-.85-1.91-1.91-1.91s-1.91.85-1.91,1.91v5.68c-2.53.13-5.05.13-7.58,0v-5.68c0-1.05-.85-1.91-1.91-1.91s-1.91.85-1.91,1.91v5.39c-1.33-.14-2.66-.31-3.98-.52-1.03-.17-2.02.54-2.18,1.58-.17,1.04.54,2.02,1.58,2.18,4.04.64,8.11.96,12.18.96s8.14-.32,12.18-.96c1.04-.16,1.75-1.14,1.58-2.18-.16-1.04-1.14-1.75-2.18-1.58Z"/><path class="cls-2" d="m19.38,40.08c-4.02-1.32-7.13-6.63-7.13-10.32v-8.06h4.88c1.05,0,1.91-.85,1.91-1.91s-.85-1.91-1.91-1.91H3.56c-1.05,0-1.91.85-1.91,1.91s.85,1.91,1.91,1.91h4.88v8.06c0,3.69-3.11,9-7.13,10.32-1,.33-1.54,1.4-1.22,2.4.26.8,1.01,1.31,1.81,1.31.2,0,.4-.03.59-.1,3.4-1.12,6.15-3.9,7.85-7.06,1.7,3.16,4.45,5.94,7.85,7.06.2.06.4.1.59.1.8,0,1.55-.51,1.81-1.31.33-1-.22-2.08-1.22-2.4Z"/><path class="cls-2" d="m23.79,16.75c-1.05,0-1.91.85-1.91,1.91v27.44c0,1.05.85,1.91,1.91,1.91s1.91-.85,1.91-1.91v-27.44c0-1.05-.85-1.91-1.91-1.91Z"/></svg>